<?xml version="1.0" encoding="UTF-8"?>
<svg version="1.1" xmlns="http://www.w3.org/2000/svg" width="500" height="500">
<path d="M0 0 C1.60661411 -0.00302419 3.21322677 -0.00691501 4.81983691 -0.01159257 C9.21492301 -0.02184711 13.6099273 -0.01969723 18.00502002 -0.01541197 C22.752969 -0.01294007 27.50089853 -0.02196476 32.24884033 -0.02944946 C41.54368276 -0.04218632 50.83849629 -0.04399135 60.13334598 -0.0416492 C67.69162085 -0.03986448 75.24988696 -0.04161899 82.80816078 -0.04587364 C84.42321849 -0.04676643 84.42321849 -0.04676643 86.07090363 -0.04767724 C88.25843233 -0.04888903 90.44596102 -0.05010317 92.63348971 -0.05131962 C113.14039275 -0.0621916 133.64727934 -0.06003449 154.15418331 -0.05393478 C172.89636157 -0.0487679 191.63848781 -0.06001562 210.38065579 -0.07903299 C229.64211109 -0.09842685 248.90354181 -0.10666455 268.16500694 -0.10290974 C278.97194716 -0.1009998 289.77884314 -0.10346499 300.58577538 -0.11762428 C309.78764487 -0.12955889 318.98944289 -0.13091979 328.19131341 -0.11883412 C332.88177982 -0.11295957 337.57211565 -0.11180637 342.26257324 -0.12383652 C346.56527572 -0.13474339 350.86773934 -0.13153532 355.17043088 -0.11757483 C356.71816778 -0.11494102 358.2659237 -0.11725256 359.81364187 -0.1253107 C380.53315644 -0.22560689 397.17073685 3.60035693 412.34248352 18.26069641 C425.02186132 31.46733547 427.25130543 46.5504512 427.22619629 64.24725342 C427.22846185 65.42803422 427.2307274 66.60881501 427.23306161 67.82537705 C427.23827368 71.08080228 427.23905048 74.33619252 427.23786724 77.59162056 C427.23766228 81.11111791 427.2431909 84.63060718 427.2479248 88.15010071 C427.25621066 95.03638124 427.25897869 101.92265321 427.25953718 108.80893832 C427.2600132 114.40789556 427.26207223 120.00685 427.26523781 125.60580635 C427.27403775 141.49452352 427.27865807 157.38323395 427.27790733 173.27195358 C427.2778474 174.55524236 427.2778474 174.55524236 427.27778625 175.86445618 C427.27774537 176.72103123 427.27770449 177.57760628 427.27766237 178.46013815 C427.2772558 192.34615406 427.28682981 206.23214287 427.30092462 220.11815094 C427.3152969 234.39054271 427.32219438 248.66292125 427.32133085 262.93532044 C427.32099923 270.94251245 427.32373083 278.94967602 427.3345089 286.9568615 C427.34362497 293.77271065 427.34577995 300.58851846 427.33899947 307.40437108 C427.33574022 310.87903363 427.33565607 314.35361691 427.34435272 317.82827187 C427.35207441 321.60130376 427.34742644 325.3741283 427.33972168 329.14715576 C427.34486524 330.23637233 427.35000881 331.32558889 427.35530823 332.44781202 C427.28383989 348.31578749 422.67062694 362.195895 412.09248352 374.26069641 C409.26976419 376.91294956 406.32700241 379.13595211 403.09248352 381.26069641 C402.06381165 381.95098938 402.06381165 381.95098938 401.01435852 382.65522766 C388.23956145 390.48570512 374.78486877 390.8398791 360.31489563 390.75898743 C358.3603728 390.7628182 356.4058528 390.76844367 354.45133972 390.77571106 C350.27117746 390.78758952 346.09126671 390.78722896 341.91110039 390.77711678 C335.30094337 390.76147045 328.69104159 390.77529042 322.0809021 390.79315186 C309.25550719 390.82386446 296.43019174 390.82547558 283.60476685 390.82350159 C267.2468427 390.82210513 250.88897874 390.83241564 234.53109938 390.87207931 C227.95917553 390.88701608 221.38747995 390.88674189 214.81555259 390.87460148 C210.73560163 390.86989787 206.65573854 390.87739794 202.57580185 390.88814545 C200.68313471 390.89055522 198.79045298 390.88780349 196.89780235 390.87953758 C194.3164213 390.86893616 191.73571693 390.87665215 189.15435791 390.8888855 C188.40417308 390.88130944 187.65398826 390.87373339 186.88107055 390.86592776 C180.90366376 390.92608545 177.86359871 392.55986357 173.63154602 396.62397766 C172.7936554 397.49409485 171.95576477 398.36421204 171.09248352 399.26069641 C169.22722027 401.00036171 167.35168111 402.72905656 165.46748352 404.44819641 C164.94895813 404.92160461 164.43043274 405.39501282 163.89619446 405.88276672 C162.82313721 406.86200476 161.74956845 407.84068259 160.67549133 408.81880188 C159.16461562 410.19499435 157.65583998 411.57349137 156.14717102 412.95210266 C151.51063398 417.18181263 146.84763446 421.37281565 142.11201477 425.49116516 C138.0658132 429.03648298 134.08594645 432.65624661 130.09248352 436.26069641 C127.61363675 438.48891728 125.13439312 440.7166956 122.65498352 442.94429016 C120.8977931 444.53272601 119.14814942 446.12953869 117.40498352 447.73335266 C112.8616051 451.90887232 108.28222359 455.96200319 103.46748352 459.82319641 C99.09971123 463.34599426 95.1480247 467.10197383 91.22920227 471.11225891 C82.64552069 479.74301735 82.64552069 479.74301735 78.09248352 481.26069641 C77.40456266 482.58318917 76.74063705 483.91826607 76.09248352 485.26069641 C70.59714985 491.13501861 65.24691036 494.79909343 57.15498352 495.69819641 C51.39672291 495.45221246 46.85623622 492.97678012 42.77998352 489.01069641 C39.05316262 482.93735864 37.83264906 478.98728609 38.43232727 471.90913391 C38.53488831 470.66752502 38.63744934 469.42591614 38.74311829 468.14668274 C38.85840881 466.86430725 38.97369934 465.58193176 39.09248352 464.26069641 C39.19810608 463.04857483 39.30372864 461.83645325 39.41255188 460.58760071 C39.74895029 456.83119348 40.10422566 453.07709881 40.46748352 449.32319641 C40.53184601 448.65493835 40.5962085 447.9866803 40.66252136 447.298172 C41.59320597 437.68542165 42.66113664 428.09971812 44.00215149 418.53437805 C45.26212979 409.4687895 46.16008873 400.36463447 47.09248352 391.26069641 C45.88337563 391.25855888 45.88337563 391.25855888 44.64984131 391.25637817 C36.98708363 391.23841682 29.32498604 391.1964204 21.66252041 391.12860584 C17.72479338 391.09457205 13.78744455 391.06926321 9.8495636 391.06513977 C6.03661572 391.06080531 2.22451758 391.0319267 -1.58816338 390.98726463 C-3.02987115 390.97445149 -4.47168149 390.96992323 -5.9134388 390.97454262 C-22.6113834 391.01551344 -38.75774951 386.28961273 -51.15751648 374.63569641 C-60.56501505 364.68977185 -67.01389232 351.91855033 -67.04173756 338.05902863 C-67.0461954 337.02600538 -67.05065324 335.99298213 -67.05524617 334.92865515 C-67.05506181 333.80036622 -67.05487745 332.67207728 -67.0546875 331.50959778 C-67.05836419 330.30576651 -67.06204088 329.10193524 -67.06582898 327.86162424 C-67.07493857 324.52313936 -67.07956172 321.18470358 -67.08221829 317.84621096 C-67.08612885 314.24410015 -67.09570671 310.64200349 -67.10443115 307.03990173 C-67.1241752 298.34181358 -67.13425953 289.6437243 -67.14315894 280.94561934 C-67.14754555 276.84595778 -67.15291142 272.74629751 -67.15814781 268.64663696 C-67.17515866 255.01201903 -67.18965152 241.37740188 -67.19689655 227.74277496 C-67.19880634 224.20610554 -67.20072669 220.66943612 -67.2026825 217.13276672 C-67.20316624 216.25378229 -67.20364998 215.37479787 -67.20414837 214.46917754 C-67.21244382 200.2389462 -67.23777316 186.00879905 -67.27026317 171.77860445 C-67.30337334 157.15715125 -67.32134892 142.53574077 -67.32454079 127.9142499 C-67.32670232 119.70956481 -67.33539835 111.50500247 -67.36100197 103.300354 C-67.38276318 96.31099187 -67.39073288 89.3217823 -67.38103519 82.33239013 C-67.37650599 78.77020683 -67.3782953 75.20833796 -67.39779663 71.64619827 C-67.41881524 67.77322515 -67.4083931 63.90067945 -67.39526367 60.02766418 C-67.40623292 58.91722103 -67.41720216 57.80677787 -67.42850381 56.66268492 C-67.29628826 40.42427887 -60.9502161 26.89708956 -49.90751648 15.26069641 C-35.47434185 2.3387343 -18.61598678 -0.04982488 0 0 Z M100.77998352 95.82319641 C97.93767324 99.9287557 97.94410777 102.95805289 97.9453125 107.82582092 C97.94163581 108.61550554 97.93795912 109.40519015 97.93417102 110.2188046 C97.92310924 112.87958491 97.91928613 115.5403262 97.91548157 118.2011261 C97.90921879 120.10299301 97.90257216 122.00485869 97.89556885 123.90672302 C97.87814171 129.08452401 97.8676024 134.26231575 97.85936332 139.44013882 C97.85421676 142.67347055 97.84814087 145.90679939 97.84185219 149.14012909 C97.82279527 159.25181173 97.80856524 169.36348705 97.80024022 179.4751842 C97.79046519 191.15601438 97.76414075 202.83665519 97.72373933 214.51741862 C97.69360068 223.53998501 97.67877348 232.56249705 97.67545921 241.58511281 C97.67310613 246.97663976 97.66411225 252.36796451 97.63899803 257.75943756 C97.61575176 262.83197619 97.61147024 267.90417901 97.62175941 272.97675705 C97.62225573 274.83836609 97.61590729 276.69999147 97.60220337 278.56155014 C97.58453476 281.10398293 97.59156532 283.64520406 97.60473633 286.18763733 C97.59376708 286.92364001 97.58279784 287.65964269 97.57149619 288.41794848 C97.6499381 294.69348649 100.0841065 298.13755499 104.27998352 302.57319641 C108.19022127 304.91933906 111.54899142 305.56359588 116.09248352 305.26069641 C120.76483989 304.01034752 123.99993928 301.98229791 126.52998352 297.82319641 C128.72891723 292.80962755 129.21745458 288.60227329 129.21273804 283.15466309 C129.2141127 281.92773743 129.21548737 280.70081177 129.21690369 279.43670654 C129.21336504 278.08531164 129.20973024 276.73391699 129.20600891 275.38252258 C129.2057267 273.95323183 129.20588543 272.52394094 129.20645142 271.09465027 C129.20673808 267.22109021 129.2008624 263.34756118 129.19387746 259.47400832 C129.18762224 255.4234392 129.1870384 251.37286935 129.18585205 247.32229614 C129.18274513 239.65489888 129.17454035 231.9875159 129.16450256 224.32012492 C129.15332158 215.58982638 129.14782597 206.85952715 129.14280713 198.12922323 C129.13235721 180.17303953 129.11477014 162.21686912 129.09248352 144.26069641 C129.75248352 144.26069641 130.41248352 144.26069641 131.09248352 144.26069641 C131.31549133 144.9142511 131.53849915 145.56780579 131.76826477 146.24116516 C133.54475734 150.29198744 135.8863418 153.86181151 138.27998352 157.57319641 C139.36787688 159.27720628 140.4550838 160.98165453 141.54170227 162.68647766 C142.11839661 163.58962708 142.69509094 164.49277649 143.28926086 165.42329407 C146.42044104 170.35026076 149.50427059 175.30672941 152.59248352 180.26069641 C157.11240295 187.50379712 161.64888694 194.73570435 166.21748352 201.94819641 C170.86749541 209.29281068 175.45569124 216.67410457 180.02436829 224.0695343 C189.17996735 238.88441512 198.39213909 253.66686675 207.73628235 268.36372375 C210.27298513 272.35615045 212.77166358 276.36655651 215.22138977 280.41304016 C215.74386292 281.2659967 216.26633606 282.11895325 216.80464172 282.99775696 C217.79194976 284.61108632 218.7692702 286.23059471 219.73384094 287.85762024 C224.39730267 295.42901422 230.41574728 301.61355654 239.09248352 304.26069641 C244.18669553 305.21399924 248.49805413 305.79217287 253.46748352 304.13569641 C257.39409631 301.33097299 260.5405456 298.91651018 262.09248352 294.26069641 C262.1944998 291.69005158 262.24029332 289.14623941 262.23965454 286.57531738 C262.24333123 285.78477835 262.24700792 284.99423931 262.25079602 284.17974454 C262.26183803 281.52207028 262.26567755 278.86443511 262.26948547 276.20674133 C262.27574966 274.30472692 262.28239642 272.40271374 262.28939819 270.5007019 C262.30681026 265.32709223 262.31736022 260.15349179 262.32560372 254.97986007 C262.33075276 251.74870057 262.33682849 248.51754395 262.34311485 245.28638649 C262.36216632 235.18004663 262.37639834 225.07371409 262.38472682 214.96735972 C262.39450429 203.29502964 262.42083734 191.62288893 262.46122772 179.9506256 C262.49136559 170.9322853 262.50619343 161.91399937 262.50950783 152.89560968 C262.51186069 147.50745102 262.520852 142.11949471 262.54596901 136.73139 C262.56921439 131.66294192 262.57349717 126.59482992 262.56320763 121.52634239 C262.56271132 119.66634505 262.56905964 117.80633136 262.58276367 115.94638443 C262.60043228 113.40619433 262.59340178 110.86721695 262.58023071 108.32702637 C262.59119996 107.59170581 262.6021692 106.85638524 262.61347085 106.09878224 C262.55005881 101.03022643 261.23816914 98.1883923 258.09248352 94.26069641 C254.84753998 91.37115145 251.36070571 90.01364882 247.02998352 89.82319641 C241.97983298 90.38432425 238.95490567 91.96734769 234.84248352 94.82319641 C229.6125298 102.10777481 230.81832723 112.99868738 230.86543274 121.52290344 C230.86599802 122.93322746 230.86567801 124.34355206 230.86454773 125.75387573 C230.86397779 129.55280179 230.87567343 133.35159956 230.88969564 137.15049601 C230.90226334 141.13162987 230.90337824 145.11276721 230.90574646 149.09391785 C230.91194358 156.61950599 230.92833027 164.1450355 230.94844544 171.67059791 C230.97085972 180.24381441 230.98181173 188.81703383 230.99183631 197.39027238 C231.01269821 215.01378021 231.04783953 232.63723358 231.09248352 250.26069641 C228.05752424 247.30664425 225.82016463 244.48212528 223.62373352 240.85054016 C222.65270691 239.25665466 222.65270691 239.25665466 221.6620636 237.63056946 C221.32462128 237.07090485 220.98717896 236.51124023 220.63951111 235.93461609 C219.21681011 233.57516917 217.78187866 231.22325246 216.34732056 228.8710022 C215.62268605 227.68279042 214.89863608 226.49422196 214.1751709 225.30529785 C211.13819807 220.31867848 208.03762349 215.37509099 204.90498352 210.44819641 C200.7562097 203.91275483 196.65848593 197.34795705 192.59248352 190.76069641 C186.49369899 180.88392783 180.30591142 171.06561766 174.09248352 161.26069641 C172.15379131 158.19894937 170.2163943 155.13638683 168.27998352 152.07319641 C167.79336243 151.3036261 167.30674133 150.53405579 166.80537415 149.74116516 C163.33954161 144.25322334 159.89912491 138.74978226 156.46626282 133.24116516 C153.34966134 128.24265668 150.22395841 123.24989879 147.09248352 118.26069641 C146.54575989 117.38912903 145.99903625 116.51756165 145.43574524 115.61958313 C143.9541286 113.26572072 142.46294731 110.91827884 140.96748352 108.57319641 C140.54265686 107.896922 140.1178302 107.22064758 139.68013 106.52388 C135.15519991 99.47987 129.51971728 93.3340221 121.21748352 91.01069641 C113.30866202 89.33535445 106.54262115 89.43757093 100.77998352 95.82319641 Z " fill="#016C76" transform="translate(69.90751647949219,1.7393035888671875)"/>
<path d="M0 0 C0 3.41563056 -0.59710145 4.15808374 -2.5 6.875 C-4.67425876 10.18497493 -5.228192 12.00664 -5 16 C-5.7425 16.680625 -5.7425 16.680625 -6.5 17.375 C-8.8806725 19.95406187 -8.12056996 22.62404118 -8 26 C-8.33 26.99 -8.66 27.98 -9 29 C-9.09093797 30.66719309 -9.12375144 32.33783133 -9.12304783 34.00750256 C-9.12503888 35.04804419 -9.12702993 36.08858582 -9.12908131 37.16065902 C-9.12471205 38.88096869 -9.12471205 38.88096869 -9.12025452 40.6360321 C-9.12110894 41.85141043 -9.12196337 43.06678876 -9.12284368 44.31899673 C-9.12420898 47.69850759 -9.12107241 51.0779609 -9.11606562 54.45746481 C-9.11175601 58.0995729 -9.11320791 61.74167914 -9.1139679 65.38378906 C-9.11449281 71.6959901 -9.11134943 78.00818082 -9.10573006 84.32037926 C-9.09761061 93.44681155 -9.09499938 102.57323884 -9.09374207 111.69967435 C-9.09155225 126.5059218 -9.08489406 141.31216374 -9.07543945 156.1184082 C-9.06626353 170.50317355 -9.05918357 184.8879374 -9.05493164 199.27270508 C-9.05466892 200.15905459 -9.05440619 201.04540411 -9.05413551 201.9586127 C-9.05283049 206.40506995 -9.05156678 210.85152721 -9.05032361 215.29798448 C-9.03995318 252.19866021 -9.02233676 289.09932968 -9 326 C-9.66 326.33 -10.32 326.66 -11 327 C-11.78224807 323.53932197 -12.12709841 320.34352768 -12.13422108 316.79833221 C-12.13867892 315.76530897 -12.14313676 314.73228572 -12.14772969 313.66795874 C-12.14754533 312.5396698 -12.14736097 311.41138087 -12.14717102 310.24890137 C-12.15084771 309.0450701 -12.1545244 307.84123883 -12.1583125 306.60092783 C-12.16742209 303.26244295 -12.17204524 299.92400716 -12.17470181 296.58551455 C-12.17861237 292.98340374 -12.18819023 289.38130708 -12.19691467 285.77920532 C-12.21665872 277.08111717 -12.22674305 268.38302789 -12.23564246 259.68492293 C-12.24002907 255.58526137 -12.24539494 251.4856011 -12.25063133 247.38594055 C-12.26764218 233.75132261 -12.28213504 220.11670547 -12.28938007 206.48207855 C-12.29128986 202.94540913 -12.29321021 199.40873971 -12.29516602 195.87207031 C-12.29564976 194.99308588 -12.2961335 194.11410145 -12.2966319 193.20848113 C-12.30492734 178.97824979 -12.33025668 164.74810264 -12.36274669 150.51790804 C-12.39585686 135.89645484 -12.41383244 121.27504436 -12.41702431 106.65355349 C-12.41918584 98.4488684 -12.42788187 90.24430606 -12.45348549 82.03965759 C-12.4752467 75.05029546 -12.4832164 68.06108589 -12.47351871 61.07169372 C-12.46898951 57.50951042 -12.47077882 53.94764155 -12.49028015 50.38550186 C-12.51129876 46.51252874 -12.50087662 42.63998304 -12.48774719 38.76696777 C-12.49871644 37.65652462 -12.50968568 36.54608146 -12.52098733 35.40198851 C-12.41690954 22.61939666 -8.51057385 9.72637012 0 0 Z " fill="#126267" transform="translate(15,23)"/>
<path d="M0 0 C0.33 0 0.66 0 1 0 C2.11604674 6.27039833 2.13988514 12.40826185 2.12698364 18.76623535 C2.12854363 19.947424 2.13010362 21.12861264 2.13171089 22.34559488 C2.13500229 25.61133271 2.13382722 28.87703318 2.13072467 32.14277005 C2.12845844 35.66974156 2.13195627 39.19670808 2.13470459 42.72367859 C2.13914817 49.62794474 2.13819209 56.5322 2.13529195 63.43646657 C2.13303238 69.04836896 2.1327278 74.66026831 2.13381577 80.27217102 C2.133969 81.07128093 2.13412223 81.87039084 2.13428011 82.6937162 C2.13459984 84.31715834 2.13492405 85.94060049 2.1352527 87.56404263 C2.13810335 102.78242065 2.13482696 118.00079264 2.12945233 133.21916968 C2.12498467 146.27355754 2.12576072 159.32793651 2.13037109 172.38232422 C2.13572416 187.54673391 2.1378287 202.71113833 2.13475883 217.87554884 C2.13444029 219.49297555 2.13412591 221.11040227 2.13381577 222.72782898 C2.13366149 223.52360695 2.13350721 224.31938492 2.13334826 225.13927737 C2.13248531 230.74359445 2.13394123 236.34790817 2.13629532 241.95222473 C2.13910163 248.78320489 2.13833747 255.61417356 2.13301457 262.4451524 C2.13038882 265.92953316 2.12935345 269.41389477 2.13266373 272.89827538 C2.1353916 276.67679097 2.13197391 280.45525251 2.12698364 284.23376465 C2.12921436 285.33308398 2.13144509 286.43240331 2.13374341 287.56503534 C2.12026099 292.81956156 1.92135471 297.82345958 1 303 C0.01 303.33 -0.98 303.66 -2 304 C-2.66 303.34 -3.32 302.68 -4 302 C-3.51293569 301.44613971 -3.02587139 300.89227942 -2.52404755 300.32163548 C-0.71567729 297.56688117 -0.6221043 296.12164605 -0.61523914 292.85383224 C-0.6057826 291.80781617 -0.59632606 290.76180009 -0.58658296 289.68408656 C-0.59143053 288.53623533 -0.59627811 287.38838411 -0.60127258 286.20574951 C-0.59462576 284.98543321 -0.58797893 283.76511691 -0.58113068 282.50782132 C-0.56568551 279.11903423 -0.56366611 275.73071554 -0.56726015 272.34192657 C-0.56788307 268.6882115 -0.5512727 265.03457044 -0.53674316 261.38088989 C-0.5139322 255.05015264 -0.50206776 248.71947051 -0.49761391 242.38869476 C-0.49115859 233.23544335 -0.46823213 224.08229167 -0.44127061 214.9290804 C-0.3979766 200.07903637 -0.36802479 185.22899653 -0.34643555 170.37890625 C-0.32543368 155.95245299 -0.29816553 141.52603404 -0.26245117 127.09960938 C-0.26025235 126.21053559 -0.25805352 125.3214618 -0.25578807 124.40544638 C-0.24471861 119.94527542 -0.23352577 115.48510479 -0.22227156 111.02493429 C-0.12904945 74.01665249 -0.05746864 37.00835373 0 0 Z " fill="#175A6C" transform="translate(495,47)"/>
<path d="M0 0 C0.99 0.33 1.98 0.66 3 1 C4.59783276 4.68651942 4.13387308 8.93658043 4.11593628 12.88829041 C4.11638433 14.0886896 4.11638433 14.0886896 4.11684144 15.31333929 C4.11648529 17.99790202 4.1088121 20.68239248 4.10107422 23.36694336 C4.09911537 25.29043037 4.09753254 27.21391779 4.09629822 29.1374054 C4.09013635 35.45491001 4.07291121 41.77236417 4.0546875 48.08984375 C4.04889646 50.264059 4.04312999 52.43827432 4.03738785 54.6124897 C4.01271641 63.6533916 3.98516716 72.69427681 3.95004082 81.73514462 C3.8997655 94.69811823 3.86640642 107.66088033 3.85675228 120.62394994 C3.84861456 129.73664896 3.82148947 138.84917138 3.78014576 147.96177965 C3.75593407 153.40632775 3.74008549 158.85060334 3.74441147 164.29520988 C3.74804261 169.4147151 3.72820511 174.53359169 3.69023323 179.65295219 C3.68038176 181.53268428 3.67906312 183.41248316 3.68686104 185.29222488 C3.69620846 187.85712581 3.67494877 190.42001331 3.64596558 192.98472595 C3.65595672 193.73005913 3.66594785 194.47539231 3.67624176 195.24331135 C3.59643486 199.16249392 3.09587019 200.87772306 0.64712715 204.00095463 C-2 206 -2 206 -5 206 C-4.195625 205.236875 -3.39125 204.47375 -2.5625 203.6875 C1.44033594 199.48940377 1.14346445 195.79331053 1.12698364 190.30116272 C1.12854363 189.50921255 1.13010362 188.71726238 1.13171089 187.90131372 C1.13570989 185.23895928 1.13253546 182.57666154 1.12939453 179.91430664 C1.13074907 178.00904812 1.1325293 176.10378986 1.13470459 174.1985321 C1.13927297 169.01678175 1.13749171 163.83505124 1.1343255 158.65330052 C1.13179848 153.23659412 1.13414044 147.81988945 1.13571167 142.40318298 C1.13753252 133.30467421 1.13512944 124.20617355 1.13037109 115.10766602 C1.12493027 104.58251453 1.12669017 94.05738241 1.1321975 83.53223139 C1.13673299 74.50373133 1.13737699 65.47523711 1.13475883 56.44673628 C1.13319825 51.05089878 1.13299629 45.65507039 1.13629532 40.25923347 C1.13918028 35.18595662 1.13718677 30.11270477 1.13140106 25.03943062 C1.13007676 23.17537986 1.13046201 21.311327 1.13266373 19.44727707 C1.13538817 16.90676309 1.13197812 14.36632974 1.12698364 11.82582092 C1.12921436 11.08467468 1.13144509 10.34352843 1.13374341 9.57992321 C1.12098731 6.24436616 1.03859262 3.18900951 0 0 Z " fill="#13646D" transform="translate(330,98)"/>
<path d="M0 0 C0.33 0 0.66 0 1 0 C1 46.53 1 93.06 1 141 C-2.38212232 139.87262589 -2.70120765 139.36237641 -4.515625 136.47265625 C-5.18464844 135.40821289 -5.18464844 135.40821289 -5.8671875 134.32226562 C-6.55167969 133.20368164 -6.55167969 133.20368164 -7.25 132.0625 C-7.95769531 130.9497168 -7.95769531 130.9497168 -8.6796875 129.81445312 C-11.2419647 125.68259384 -11.2419647 125.68259384 -12 124 C-11.505 123.01 -11.505 123.01 -11 122 C-8.7522025 124.05233685 -7.9977758 125.00667261 -7 128 C-6.34 128.33 -5.68 128.66 -5 129 C-4.26924352 131.3140622 -3.59861742 133.64828869 -3 136 C-2.34 136 -1.68 136 -1 136 C-0.67 91.12 -0.34 46.24 0 0 Z " fill="#20616A" transform="translate(300,111)"/>
<path d="M0 0 C0.66 0.33 1.32 0.66 2 1 C1.7884537 1.72158169 1.57690741 2.44316338 1.35895061 3.18661118 C-0.71293678 10.74276473 -1.44267523 17.65709523 -1.43237305 25.46972656 C-1.4425647 26.65166092 -1.45275635 27.83359528 -1.46325684 29.05134583 C-1.49318081 32.9144884 -1.50262138 36.77738217 -1.51171875 40.640625 C-1.52695664 43.33634566 -1.54659 46.03202961 -1.56611633 48.72772217 C-1.6095661 55.0702964 -1.63824449 61.41284536 -1.66143972 67.75552249 C-1.68860776 74.98427505 -1.7325114 82.21289683 -1.77772844 89.4415555 C-1.87026586 104.29429714 -1.94208703 119.14708132 -2 134 C-2.33 134 -2.66 134 -3 134 C-3 93.08 -3 52.16 -3 10 C-2.34 10 -1.68 10 -1 10 C-1.20625 8.906875 -1.4125 7.81375 -1.625 6.6875 C-2 3 -2 3 0 0 Z " fill="#0E6772" transform="translate(302,98)"/>
<path d="M0 0 C2.475 0.99 2.475 0.99 5 2 C5 2.99 5 3.98 5 5 C5.66 5.33 6.32 5.66 7 6 C7.33 6.99 7.66 7.98 8 9 C8.99 9.309375 9.98 9.61875 11 9.9375 C12.485 10.4634375 12.485 10.4634375 14 11 C14.5625 12.9375 14.5625 12.9375 15 15 C17.41055254 16.66299965 17.41055254 16.66299965 20 18 C22 20 22 20 22 22 C14.15182008 19.7926994 7.69499563 12.40625572 3 6 C1.125 2.5625 1.125 2.5625 0 0 Z " fill="#0C676A" transform="translate(9,362)"/>
<path d="M0 0 C-0.33 0.99 -0.66 1.98 -1 3 C-2.65 3 -4.3 3 -6 3 C-6.433125 4.2065625 -6.433125 4.2065625 -6.875 5.4375 C-8 8 -8 8 -10 9 C-10.99 9 -11.98 9 -13 9 C-14.34873447 9.45682942 -15.68202056 9.96082659 -17 10.5 C-19.66035706 11.58832789 -21.05739645 12 -24 12 C-17.67410698 6.32794605 -8.87736815 0 0 0 Z " fill="#12656A" transform="translate(46,4)"/>
<path d="M0 0 C0.99 0.33 1.98 0.66 3 1 C3.70211894 2.65204456 4.36971413 4.31923769 5 6 C5.66 6.33 6.32 6.66 7 7 C7.73075648 9.3140622 8.40138258 11.64828869 9 14 C9.66 14 10.32 14 11 14 C11 10.04 11 6.08 11 2 C11.33 2 11.66 2 12 2 C12 6.95 12 11.9 12 17 C11.34 17.33 10.68 17.66 10 18 C8.32605999 15.37957157 6.6621165 12.75294095 5 10.125 C4.52304687 9.37863281 4.04609375 8.63226563 3.5546875 7.86328125 C3.10351562 7.14785156 2.65234375 6.43242187 2.1875 5.6953125 C1.76855469 5.03547363 1.34960938 4.37563477 0.91796875 3.69580078 C0 2 0 2 0 0 Z " fill="#0F6A70" transform="translate(288,233)"/>
<path d="M0 0 C6.10819022 3.05409511 10.3536679 7.02782124 15 12 C12 13 12 13 8.9375 11.75 C6 10 6 10 4 7 C4.66 7 5.32 7 6 7 C5.34 6.34 4.68 5.68 4 5 C3.67 4.34 3.34 3.68 3 3 C2.01 2.67 1.02 2.34 0 2 C0 1.34 0 0.68 0 0 Z " fill="#0D646A" transform="translate(469,10)"/>
<path d="M0 0 C2.31 0.33 4.62 0.66 7 1 C5.83593677 2.16406323 4.67129061 3.32754865 3.50390625 4.48828125 C2.4596661 5.53794602 1.42652024 6.59871848 0.40234375 7.66796875 C-1.02861348 9.14814809 -2.51152221 10.57767678 -4 12 C-4.66 12 -5.32 12 -6 12 C-6 11.01 -6 10.02 -6 9 C-5.195625 8.566875 -4.39125 8.13375 -3.5625 7.6875 C-0.66843898 6.1940019 -0.66843898 6.1940019 -0.1875 2.8125 C-0.125625 1.884375 -0.06375 0.95625 0 0 Z " fill="#0B696E" transform="translate(203,427)"/>
<path d="M0 0 C5.62134251 1.46643718 5.62134251 1.46643718 7.375 3.9375 C8 6 8 6 8 9 C8.66 9 9.32 9 10 9 C10 10.98 10 12.96 10 15 C6.00887919 10.39486061 3.05543741 5.24516756 0 0 Z " fill="#0E666F" transform="translate(237,153)"/>
<path d="M0 0 C0 3.41563056 -0.59710145 4.15808374 -2.5 6.875 C-4.70030282 10.21529258 -5.11450454 11.99234111 -5 16 C-7 17.8125 -7 17.8125 -9 19 C-8.25043295 11.50432952 -4.91043599 5.61192685 0 0 Z " fill="#115F63" transform="translate(15,23)"/>
<path d="M0 0 C0.66 0.33 1.32 0.66 2 1 C0.68 2.65 -0.64 4.3 -2 6 C-1.34 6.33 -0.68 6.66 0 7 C-2.79784711 7 -4.9790678 6.62804225 -7.6875 6 C-8.89986328 5.7215625 -8.89986328 5.7215625 -10.13671875 5.4375 C-11.05904297 5.2209375 -11.05904297 5.2209375 -12 5 C-12 4.67 -12 4.34 -12 4 C-11.38511719 3.87882812 -10.77023438 3.75765625 -10.13671875 3.6328125 C-9.32847656 3.46523438 -8.52023438 3.29765625 -7.6875 3.125 C-6.88699219 2.96257812 -6.08648437 2.80015625 -5.26171875 2.6328125 C-2.74698882 2.05521001 -2.74698882 2.05521001 0 0 Z " fill="#0E686E" transform="translate(192,303)"/>
<path d="M0 0 C0.66 0 1.32 0 2 0 C3.76171875 2.3359375 3.76171875 2.3359375 5.6875 5.375 C6.65236328 6.87160156 6.65236328 6.87160156 7.63671875 8.3984375 C8.31154297 9.68621094 8.31154297 9.68621094 9 11 C8.67 11.66 8.34 12.32 8 13 C3.125 8.25 3.125 8.25 2 6 C2.33 5.34 2.66 4.68 3 4 C1.68 3.67 0.36 3.34 -1 3 C-0.67 2.01 -0.34 1.02 0 0 Z " fill="#13606A" transform="translate(199,146)"/>
<path d="M0 0 C0.66 0 1.32 0 2 0 C2.66 1.65 3.32 3.3 4 5 C4.66 5 5.32 5 6 5 C6 5.99 6 6.98 6 8 C6.99 8.33 7.98 8.66 9 9 C10.25 11.375 10.25 11.375 11 14 C10.67 14.99 10.34 15.98 10 17 C8.32972219 14.35642999 6.6643902 11.70978008 5 9.0625 C4.52304688 8.30775391 4.04609375 7.55300781 3.5546875 6.77539062 C3.10351562 6.05673828 2.65234375 5.33808594 2.1875 4.59765625 C1.76855469 3.93258057 1.34960938 3.26750488 0.91796875 2.58227539 C0 1 0 1 0 0 Z " fill="#126269" transform="translate(206,103)"/>
<path d="M0 0 C-0.33 0.99 -0.66 1.98 -1 3 C-2.65 3 -4.3 3 -6 3 C-6.433125 4.2065625 -6.433125 4.2065625 -6.875 5.4375 C-8 8 -8 8 -10 9 C-10.66 8.67 -11.32 8.34 -12 8 C-11.67 7.01 -11.34 6.02 -11 5 C-10.01 5 -9.02 5 -8 5 C-8 4.01 -8 3.02 -8 2 C-2.25 0 -2.25 0 0 0 Z " fill="#086571" transform="translate(46,4)"/>
<path d="M0 0 C3.18426404 1.09802208 3.94112325 1.88931172 5.5625 4.9375 C6.036875 5.948125 6.51125 6.95875 7 8 C7.5775 8.53625 8.155 9.0725 8.75 9.625 C9.1625 10.07875 9.575 10.5325 10 11 C9.578125 13.0859375 9.578125 13.0859375 9 15 C7.49726004 12.68923915 5.99770448 10.37652089 4.5 8.0625 C4.07074219 7.40314453 3.64148438 6.74378906 3.19921875 6.06445312 C0 1.11328125 0 1.11328125 0 0 Z " fill="#106668" transform="translate(278,218)"/>
<path d="M0 0 C0.66 0 1.32 0 2 0 C2.33 0.99 2.66 1.98 3 3 C3.99 3.66 4.98 4.32 6 5 C6 5.66 6 6.32 6 7 C6.66 7 7.32 7 8 7 C8 8.98 8 10.96 8 13 C4.32117927 9.71533863 2.24849899 6.33639092 0 2 C0 1.34 0 0.68 0 0 Z " fill="#0E656C" transform="translate(260,188)"/>
<path d="M0 0 C1.18851562 0.00902344 2.37703125 0.01804687 3.6015625 0.02734375 C4.51679688 0.03894531 5.43203125 0.05054687 6.375 0.0625 C6.375 0.3925 6.375 0.7225 6.375 1.0625 C5.28832031 1.20945312 5.28832031 1.20945312 4.1796875 1.359375 C-1.76892808 2.27942754 -5.9259104 3.25242735 -10.625 7.0625 C-10.02316251 5.04204558 -9.35193904 3.04138961 -8.625 1.0625 C-5.74084117 -0.37957941 -3.20778472 -0.03144887 0 0 Z " fill="#0F6667" transform="translate(314.625,90.9375)"/>
<path d="M0 0 C2.125 0.375 2.125 0.375 4 1 C2.92892883 1.86949317 1.84254056 2.72014205 0.75 3.5625 C0.14671875 4.03816406 -0.4565625 4.51382812 -1.078125 5.00390625 C-3 6 -3 6 -5.234375 5.65234375 C-5.81703125 5.43707031 -6.3996875 5.22179687 -7 5 C-7 4.34 -7 3.68 -7 3 C-6.21625 2.87625 -5.4325 2.7525 -4.625 2.625 C-1.85942178 2.20882007 -1.85942178 2.20882007 0 0 Z " fill="#085D62" transform="translate(139,489)"/>
<path d="M0 0 C2.79872437 2.52788007 4.45773019 4.20411134 5 8 C2 9 2 9 -1 8 C-0.67 5.36 -0.34 2.72 0 0 Z " fill="#0D676E" transform="translate(266,252)"/>
<path d="M0 0 C0.99 1.32 1.98 2.64 3 4 C0.03 6.475 0.03 6.475 -3 9 C-3 4.72290301 -2.29379749 3.44069624 0 0 Z " fill="#0A6A6D" transform="translate(214,418)"/>
<path d="M0 0 C0.99 0.33 1.98 0.66 3 1 C3.70211894 2.65204456 4.36971413 4.31923769 5 6 C5.66 6.33 6.32 6.66 7 7 C7.625 9.5625 7.625 9.5625 8 12 C7.34 12 6.68 12 6 12 C4.4921875 9.8828125 4.4921875 9.8828125 2.875 7.125 C2.33617187 6.22007812 1.79734375 5.31515625 1.2421875 4.3828125 C0 2 0 2 0 0 Z " fill="#116265" transform="translate(288,233)"/>
<path d="M0 0 C2.38672669 2.96283313 4.7353371 5.94270509 7 9 C6.67 9.66 6.34 10.32 6 11 C1.9957657 7.50912907 0.37328935 5.35048061 0 0 Z " fill="#14636A" transform="translate(218,175)"/>
<path d="M0 0 C2.84364336 2.71327575 4.87068581 5.69589177 7 9 C6.67 9.66 6.34 10.32 6 11 C4.078125 10.2890625 4.078125 10.2890625 2 9 C1.171875 6.8359375 1.171875 6.8359375 0.75 4.375 C0.60046875 3.55773437 0.4509375 2.74046875 0.296875 1.8984375 C0.19890625 1.27195312 0.1009375 0.64546875 0 0 Z " fill="#126368" transform="translate(280,274)"/>
<path d="M0 0 C0.66 0 1.32 0 2 0 C1.67 2.64 1.34 5.28 1 8 C0.01 8 -0.98 8 -2 8 C-1.125 1.125 -1.125 1.125 0 0 Z " fill="#0A585D" transform="translate(116,413)"/>
<path d="M0 0 C0.99 0.99 1.98 1.98 3 3 C-0.18762365 5.12508244 -2.26512223 5.5020163 -6 6 C-6 5.34 -6 4.68 -6 4 C-5.38125 3.71125 -4.7625 3.4225 -4.125 3.125 C-1.86674235 2.06279958 -1.86674235 2.06279958 0 0 Z " fill="#11666E" transform="translate(457,385)"/>
<path d="M0 0 C3 2 6 4 9 6 C3.58461538 6.36923077 3.58461538 6.36923077 0.625 4.5 C0.08875 4.005 -0.4475 3.51 -1 3 C-0.67 2.01 -0.34 1.02 0 0 Z " fill="#0C5D63" transform="translate(171,301)"/>
<path d="M0 0 C0.99 0.33 1.98 0.66 3 1 C1.37660195 2.70884005 -0.29319053 4.37446717 -2 6 C-2.66 6 -3.32 6 -4 6 C-3.6875 4.125 -3.6875 4.125 -3 2 C-2.01 1.34 -1.02 0.68 0 0 Z " fill="#0F6265" transform="translate(190,443)"/>
<path d="M0 0 C1.0326802 2.78823655 1.04509293 3.8677274 0.0625 6.75 C-0.288125 7.4925 -0.63875 8.235 -1 9 C-3 6 -3 6 -4 3 C-2.68 2.67 -1.36 2.34 0 2 C0 1.34 0 0.68 0 0 Z " fill="#08686F" transform="translate(493,352)"/>
<path d="M0 0 C2.9375 0.8125 2.9375 0.8125 6 2 C6.33 2.99 6.66 3.98 7 5 C6.01 6.485 6.01 6.485 5 8 C2.525 4.04 2.525 4.04 0 0 Z " fill="#0D5F66" transform="translate(237,153)"/>
<path d="M0 0 C1.65 0 3.3 0 5 0 C5 0.66 5 1.32 5 2 C5.66 2 6.32 2 7 2 C7 2.99 7 3.98 7 5 C3.34683329 3.75023244 2.21934164 3.32901247 0 0 Z " fill="#0A6768" transform="translate(113,490)"/>
<path d="M0 0 C0.66 0.33 1.32 0.66 2 1 C-1.96 4.465 -1.96 4.465 -6 8 C-6.33 7.34 -6.66 6.68 -7 6 C-4.69 4.02 -2.38 2.04 0 0 Z " fill="#146268" transform="translate(175,457)"/>
<path d="M0 0 C1.98 0.99 1.98 0.99 4 2 C3.34 3.98 2.68 5.96 2 8 C1.34 8 0.68 8 0 8 C0 5.36 0 2.72 0 0 Z " fill="#0A5F62" transform="translate(117,391)"/>
<path d="M0 0 C2.61500768 2.36595933 4.38999603 4.86049226 6 8 C5.67 8.66 5.34 9.32 5 10 C1.32769295 6.92000054 0.43197635 4.7517398 0 0 Z " fill="#0F5E63" transform="translate(240,210)"/>
<path d="M0 0 C2.97 0.495 2.97 0.495 6 1 C5.67 2.32 5.34 3.64 5 5 C4.67 4.67 4.34 4.34 4 4 C3.67 4.99 3.34 5.98 3 7 C0 2.25 0 2.25 0 0 Z " fill="#0E656C" transform="translate(248,169)"/>
<path d="M0 0 C2.38672669 2.96283313 4.7353371 5.94270509 7 9 C4.525 8.01 4.525 8.01 2 7 C2 6.01 2 5.02 2 4 C1.01 3.67 0.02 3.34 -1 3 C-0.67 2.01 -0.34 1.02 0 0 Z " fill="#0E656A" transform="translate(291,291)"/>
<path d="M0 0 C2.72426311 2.35277269 3.8141763 4.62496331 5 8 C2.03 7.505 2.03 7.505 -1 7 C-0.34 6.01 0.32 5.02 1 4 C0.69159401 1.84725052 0.69159401 1.84725052 0 0 Z " fill="#0E656A" transform="translate(233,199)"/>
</svg>
